<?xml version="1.0" encoding="UTF-8" standalone="no"?>
<svg
   width="192"
   height="192"
   version="1.1"
   id="svg6"
   sodipodi:docname="icon-192x192.svg"
   inkscape:version="1.4 (86a8ad7, 2024-10-11)"
   inkscape:export-filename="icon-192x192.png"
   inkscape:export-xdpi="96"
   inkscape:export-ydpi="96"
   xmlns:inkscape="http://www.inkscape.org/namespaces/inkscape"
   xmlns:sodipodi="http://sodipodi.sourceforge.net/DTD/sodipodi-0.dtd"
   xmlns="http://www.w3.org/2000/svg"
   xmlns:svg="http://www.w3.org/2000/svg">
  <defs
     id="defs6">
    <rect
       x="-7.1779661"
       y="362.4873"
       width="925.95764"
       height="283.52966"
       id="rect8" />
    <rect
       x="-31.722429"
       y="390.82031"
       width="1133.1252"
       height="274.08179"
       id="rect7" />
  </defs>
  <sodipodi:namedview
     id="namedview6"
     pagecolor="#505050"
     bordercolor="#eeeeee"
     borderopacity="1"
     inkscape:showpageshadow="0"
     inkscape:pageopacity="0"
     inkscape:pagecheckerboard="0"
     inkscape:deskcolor="#505050"
     inkscape:zoom="2.2290436"
     inkscape:cx="177.87898"
     inkscape:cy="141.54052"
     inkscape:window-width="1920"
     inkscape:window-height="1009"
     inkscape:window-x="-8"
     inkscape:window-y="-8"
     inkscape:window-maximized="1"
     inkscape:current-layer="svg6" />
  <g
     id="g6"
     transform="matrix(0.30405417,0,0,0.30405417,-59.581671,-59.566822)">
    <path
       d="m 448.869,304.225 c 11.048,-0.775 22.619,0.6 33.685,1.134 -0.877,0.637 -27.906,5.716 -31.938,6.666 -21.676,5.107 -42.663,12.648 -61.804,24.136 -47.34106,28.40204 -81.41653,74.49406 -94.69,128.082 -13.7414,54.29557 -5.18545,111.83215 23.76,159.78 23.46484,39.18957 59.43895,69.33925 102.127,85.592 10.639,3.987 21.658,6.633 32.674,9.33 -16.245,0.2 -32.48,-0.873 -48.557,-3.21 -52.05,-6.938 -99.226,-30.255 -138.139,-65.224 -37.18915,-33.25996 -59.72699,-79.86937 -62.703,-129.673 -2.553,-50.274 17.711,-98.221 51.206,-135.181 39.076,-43.119 95.05,-68.366 151.905,-77.503 14.129,-2.27 28.203,-3.224 42.474,-3.929"
       id="path1"
       style="fill:#087e8b;fill-opacity:1"
       sodipodi:nodetypes="cccccccccccccc" />
    <path
       fill="#429391"
       d="m 566.974,303.741 c 12.156,-0.326 24.799,0.857 36.861,2.371 40.132,5.039 79.007,16.494 113.774,37.551 46.939,28.429 85.053,73.855 98.039,127.868 11.405,47.435 1.338,96.133 -24.074,137.284 -35.35,57.245 -96.713,91.031 -160.752,106.164 -18.165,4.084 -36.082,4.53 -54.604,4.618 6.99,-2.872 14.535,-4.764 21.683,-7.263 18.525,-6.478 36.71,-14.8 52.707,-26.273 a 206.2,206.2 0 0 0 82.465,-133.969 c 8.87,-55.403 -3.65,-114.943 -36.847,-160.582 -26.736,-36.757 -68.854,-64.29 -112.337,-76.865 -15.229,-4.405 -30.745,-6.687 -46.373,-9.128 a 960,960 0 0 1 29.458,-1.776"
       id="path2"
       style="fill:#06d6a0;fill-opacity:1" />
    <path
       d="m 697.294,412.302 c 0.43,0.375 0.814,0.725 1.172,1.172 8.569,10.721 10.844,34.359 9.092,47.509 -1.587,11.917 -6.113,22.608 -12.807,32.526 -25.661,38.016 -67.422,38.702 -100.602,64.025 -31.532,24.064 -34.342,51.111 -33.634,87.908 l 0.624,40.524 c 0.083,11.056 0.355,21.96 -1.155,32.949 l -25.734,0.02 -9.788,0.057 c 0.722,-14.511 0.512,-29.079 0.523,-43.605 0.014,-16.647 0.173,-33.317 -0.068,-49.962 -0.274,-18.919 -2.425,-39.37 1.229,-58.015 1.591,-8.118 6.427,-16.345 11.663,-22.642 22.083,-26.558 55.256,-26.293 86.069,-33.559 12.888,-3.039 25.673,-7.814 37.077,-14.563 9.95,-5.888 18.837,-13.394 25.689,-22.748 13.608,-18.579 14.095,-39.625 10.65,-61.596"
       id="path3"
       style="fill:#000000;fill-opacity:1" />
    <path
       d="m 325.877,411.461 c 1.128,2.241 -1.583,8.796 -1.983,11.524 -0.337,2.303 -0.413,4.668 -0.419,6.992 -0.042,15.651 4.202,30.159 13.132,43.045 36.4,52.525 105.888,28.225 145.774,68.509 7.614,7.69 12.839,16.973 15.108,27.576 3.507,16.387 0.846,33.315 0.799,49.872 l -0.301,99.913 -7.612,0.075 c -8.926,0.064 -17.923,0.123 -26.835,-0.365 -0.29,-18.439 -0.578,-36.817 -0.479,-55.271 0.101,-18.939 2.157,-39.302 -2.197,-57.885 a 80.2,80.2 0 0 0 -16.626,-33.307 c -22.75,-27.088 -56.742,-33.076 -85.377,-51.051 -20.155,-12.653 -37.178,-30.773 -42.534,-54.536 a 74.28,74.28 0 0 1 9.55,-55.091"
       id="path4"
       style="fill:#000000;fill-opacity:1" />
    <path
       d="m 415.438,386.861 c 30.322,-3.708 57.873,17.958 61.419,48.299 3.546,30.341 -18.267,57.776 -48.626,61.16 -30.131,3.359 -57.316,-18.255 -60.835,-48.367 -3.519,-30.113 17.949,-57.412 48.042,-61.092"
       id="path5"
       style="fill:#000000;fill-opacity:1" />
    <path
       d="m 594.381,386.798 c 42.39656,-5.37754 74.43475,37.5753 57.195,76.68 -7.99125,18.12344 -25.11769,30.54371 -44.827,32.509 -29.911,2.982 -56.667,-18.624 -60.051,-48.493 -3.383,-29.869 17.862,-56.912 47.683,-60.696"
       id="path6"
       sodipodi:nodetypes="ccccc"
       style="fill:#000000;fill-opacity:1" />
  </g>
  <text
     xml:space="preserve"
     id="text7"
     style="font-size:192px;text-align:start;writing-mode:lr-tb;direction:ltr;white-space:pre;shape-inside:url(#rect7);display:inline;opacity:0.421918;fill:#000000;fill-opacity:1;stroke:none;stroke-width:2.5;stroke-opacity:1"
     transform="translate(-33.035835,-388.7027)" />
  <text
     xml:space="preserve"
     id="text8"
     style="font-style:normal;font-variant:normal;font-weight:normal;font-stretch:normal;font-size:192px;line-height:0;font-family:SimSun;-inkscape-font-specification:SimSun;text-align:end;letter-spacing:0px;word-spacing:0px;writing-mode:lr-tb;direction:ltr;white-space:pre;shape-inside:url(#rect8);display:inline;opacity:0.421918;fill:#000000;fill-opacity:1;stroke:none;stroke-width:2.5;stroke-opacity:1"
     transform="translate(-33.035835,-388.7027)" />
</svg>
